<svg width="180" height="61" viewBox="0 0 180 61" fill="none" xmlns="http://www.w3.org/2000/svg">
<g clip-path="url(#clip0_246_228)">
<path d="M165.667 0H14.3431C13.7911 0 13.245 0 12.696 0.00300842C12.2357 0.00601685 11.7784 0.0150421 11.3136 0.0225632C10.3036 0.0335925 9.29585 0.121593 8.29918 0.2858C7.30449 0.454583 6.34097 0.772545 5.44118 1.22894C4.54123 1.68976 3.719 2.28867 3.00436 3.00391C2.28723 3.71589 1.68943 4.53869 1.2339 5.44073C0.77674 6.34153 0.459713 7.30681 0.29377 8.30325C0.126393 9.2986 0.0363729 10.3054 0.0245163 11.3147C0.00947418 11.7765 0.00947418 12.2398 0.00195312 12.7001V47.4729C0.00947418 47.9392 0.0109784 48.3905 0.0245163 48.8583C0.0368641 49.8676 0.127388 50.8744 0.295274 51.8697C0.460148 52.8672 0.776687 53.8336 1.2339 54.7353C1.68986 55.6338 2.28825 56.4527 3.00586 57.16C3.71698 57.8777 4.53871 58.4764 5.43968 58.9335C6.33999 59.3909 7.30392 59.7103 8.29918 59.8812C9.29595 60.045 10.3036 60.134 11.3136 60.1474C11.7799 60.1579 12.2357 60.164 12.696 60.164C13.2465 60.167 13.7911 60.167 14.3431 60.167H165.667C166.208 60.167 166.756 60.167 167.297 60.164C167.755 60.164 168.225 60.1579 168.684 60.1489C169.692 60.1357 170.698 60.0462 171.693 59.8812C172.691 59.7091 173.658 59.3897 174.563 58.9335C175.463 58.4762 176.284 57.8775 176.995 57.16C177.711 56.4491 178.311 55.6298 178.773 54.7323C179.227 53.83 179.541 52.8637 179.704 51.8667C179.872 50.8712 179.965 49.8646 179.982 48.8553C179.988 48.389 179.988 47.9377 179.988 47.4699C180 46.9224 180 46.3794 180 45.8243V14.3442C180 13.7936 180 13.2461 179.988 12.7016C179.988 12.2413 179.988 11.778 179.982 11.3177C179.965 10.3079 179.872 9.30075 179.704 8.30475C179.54 7.30882 179.226 6.34361 178.771 5.44224C177.843 3.63284 176.371 2.15987 174.563 1.23045C173.658 0.775079 172.691 0.4572 171.693 0.287304C170.698 0.121898 169.692 0.0333886 168.684 0.0225632C168.225 0.0150421 167.755 0.00601685 167.297 0.00300842C166.756 0 166.207 0 165.667 0V0Z" fill="#A6A6A6"/>
<path d="M12.7034 58.8525C12.2446 58.8525 11.7978 58.8465 11.3436 58.8375C10.4011 58.8248 9.46093 58.7424 8.53068 58.5908C7.66402 58.4413 6.82447 58.1635 6.03971 57.7665C5.26186 57.373 4.55234 56.857 3.93833 56.2382C3.31568 55.6261 2.7974 54.9163 2.40403 54.1368C2.00551 53.3527 1.72954 52.5121 1.58574 51.6443C1.43125 50.7119 1.34777 49.769 1.33604 48.8239C1.32551 48.508 1.31348 47.4506 1.31348 47.4506V12.7033C1.31348 12.7033 1.32701 11.6624 1.33604 11.357C1.34725 10.4135 1.43022 9.47211 1.58423 8.54114C1.72805 7.67098 2.004 6.82792 2.40253 6.04114C2.79469 5.26241 3.31028 4.55227 3.9293 3.93825C4.54747 3.31818 5.25909 2.79893 6.03821 2.39944C6.82136 2.00367 7.65954 1.72783 8.52467 1.58115C9.45782 1.42856 10.4011 1.3461 11.3466 1.33446L12.7034 1.31641H167.29L168.663 1.33596C169.599 1.34683 170.534 1.42829 171.458 1.57964C172.332 1.72814 173.179 2.00595 173.971 2.40395C175.533 3.20852 176.803 4.48138 177.604 6.04414C177.996 6.82565 178.267 7.66193 178.409 8.52459C178.565 9.46311 178.653 10.4118 178.671 11.363C178.675 11.7887 178.675 12.2475 178.675 12.7018C178.687 13.2659 178.687 13.8029 178.687 14.3444V45.826C178.687 46.3721 178.687 46.9061 178.675 47.4431C178.675 47.9319 178.675 48.3802 178.669 48.842C178.652 49.7761 178.566 50.7077 178.413 51.6293C178.273 52.5033 177.999 53.3506 177.601 54.1413C177.204 54.9123 176.689 55.6159 176.073 56.2262C175.458 56.8484 174.747 57.3675 173.967 57.7635C173.177 58.1637 172.331 58.4426 171.458 58.5908C170.528 58.7426 169.588 58.8245 168.646 58.836C168.206 58.8465 167.744 58.8525 167.297 58.8525L165.667 58.8555L12.7034 58.8525Z" fill="black"/>
<path d="M37.2573 30.5359C37.2737 29.2807 37.6072 28.0501 38.2268 26.9584C38.8464 25.8667 39.732 24.9495 40.8012 24.2919C40.1219 23.3216 39.2258 22.523 38.184 21.9595C37.1421 21.3961 35.9833 21.0832 34.7994 21.0458C32.2724 20.7811 29.8235 22.5575 28.5359 22.5575C27.2242 22.5575 25.2417 21.0714 23.1087 21.1165C21.7283 21.161 20.3829 21.5625 19.2038 22.2816C18.0246 23.0007 17.0519 24.0131 16.3804 25.22C13.4712 30.2561 15.6418 37.6583 18.4276 41.7302C19.822 43.7233 21.4511 45.9495 23.584 45.8713C25.6704 45.7841 26.4495 44.5401 28.9691 44.5401C31.4631 44.5401 32.1941 45.8713 34.3692 45.8217C36.609 45.7841 38.0184 43.8181 39.3632 41.8054C40.3657 40.3853 41.1374 38.8156 41.6496 37.1544C40.3485 36.6044 39.2381 35.6834 38.457 34.5064C37.6759 33.3294 37.2587 31.9485 37.2573 30.5359ZM33.1478 18.3668C34.3686 16.9018 34.9703 15.0186 34.825 13.1171C32.9597 13.3129 31.2367 14.2045 29.9995 15.6141C29.3947 16.3022 28.9315 17.1027 28.6362 17.97C28.341 18.8372 28.2195 19.7541 28.2787 20.6682C29.2115 20.6779 30.1343 20.4757 30.9777 20.0771C31.8211 19.6785 32.5631 19.0937 33.1478 18.3668ZM63.6307 40.8247H56.5127L54.8024 45.8728H51.7865L58.5314 27.1935H61.6646L68.408 45.8728H65.3409L63.6307 40.8247ZM57.2483 38.4931H62.8921L60.1093 30.3012H60.0326L57.2483 38.4931ZM82.9718 39.0647C82.9718 43.2961 80.7065 46.0142 77.2874 46.0142C76.4218 46.0593 75.561 45.86 74.8034 45.4389C74.0458 45.0178 73.422 44.392 73.0034 43.633H72.9387V50.3779H70.1409V32.2537H72.8485V34.519H72.8981C73.3359 33.7634 73.9704 33.1405 74.734 32.7167C75.4977 32.2929 76.3619 32.0841 77.2347 32.1123C80.6914 32.1123 82.9703 34.8439 82.9703 39.0647H82.9718ZM80.0988 39.0647C80.0988 36.3075 78.6728 34.495 76.4992 34.495C74.3632 34.495 72.9267 36.3451 72.9267 39.0647C72.9267 41.8084 74.3632 43.6466 76.4992 43.6466C78.6728 43.6466 80.0988 41.846 80.0988 39.0647ZM97.9613 39.0647C97.9613 43.2961 95.6959 46.0142 92.2769 46.0142C91.4113 46.0593 90.5505 45.86 89.7929 45.4389C89.0353 45.0178 88.4115 44.392 87.9929 43.633H87.9282V50.3779H85.1319V32.2537H87.8379V34.519H87.8891C88.3269 33.7634 88.9614 33.1405 89.725 32.7167C90.4886 32.2929 91.3528 32.0841 92.2257 32.1123C95.6824 32.1123 97.9613 34.8439 97.9613 39.0647ZM95.0882 39.0647C95.0882 36.3075 93.6622 34.495 91.4887 34.495C89.3527 34.495 87.9162 36.3451 87.9162 39.0647C87.9162 41.8084 89.3527 43.6466 91.4887 43.6466C93.6622 43.6466 95.0867 41.846 95.0867 39.0647H95.0882ZM107.867 40.6682C108.074 42.5214 109.873 43.7368 112.334 43.7368C114.69 43.7368 116.385 42.5214 116.385 40.8502C116.385 39.4002 115.362 38.5338 112.94 37.9381L110.52 37.3545C107.09 36.5271 105.497 34.9222 105.497 32.3184C105.497 29.0963 108.306 26.8821 112.295 26.8821C116.242 26.8821 118.948 29.0963 119.038 32.3184H116.216C116.048 30.4546 114.508 29.3295 112.254 29.3295C110.001 29.3295 108.462 30.4682 108.462 32.1243C108.462 33.445 109.446 34.2227 111.854 34.8169L113.912 35.3223C117.745 36.2293 119.336 37.7681 119.336 40.5013C119.336 43.9956 116.553 46.1842 112.126 46.1842C107.984 46.1842 105.186 44.0482 105.006 40.6682H107.867ZM125.37 29.0317V32.2537H127.96V34.4679H125.37V41.9754C125.37 43.1427 125.888 43.6857 127.027 43.6857C127.334 43.6803 127.641 43.6587 127.946 43.621V45.8217C127.435 45.9173 126.914 45.9607 126.394 45.951C123.637 45.951 122.561 44.9146 122.561 42.2732V34.4679H120.582V32.2537H122.561V29.0317H125.37ZM129.459 39.0647C129.459 34.7792 131.984 32.0867 135.919 32.0867C139.867 32.0867 142.379 34.7792 142.379 39.0647C142.379 43.3608 139.881 46.0413 135.919 46.0413C131.958 46.0413 129.459 43.3608 129.459 39.0647ZM139.53 39.0647C139.53 36.1255 138.184 34.3897 135.919 34.3897C133.653 34.3897 132.308 36.1376 132.308 39.0647C132.308 42.016 133.653 43.7368 135.919 43.7368C138.184 43.7368 139.53 42.016 139.53 39.0647ZM144.684 32.2537H147.351V34.5717H147.415C147.596 33.8482 148.02 33.2089 148.616 32.7611C149.213 32.3133 149.945 32.0842 150.69 32.1123C151.012 32.111 151.334 32.1458 151.648 32.2161V34.8304C151.241 34.7063 150.817 34.6494 150.392 34.6619C149.986 34.6454 149.581 34.717 149.205 34.8718C148.829 35.0265 148.491 35.2608 148.215 35.5584C147.938 35.8561 147.729 36.2101 147.602 36.5962C147.475 36.9823 147.433 37.3913 147.478 37.7952V45.8728H144.684V32.2537ZM164.536 41.8731C164.16 44.3445 161.753 46.0413 158.673 46.0413C154.711 46.0413 152.251 43.3879 152.251 39.1294C152.251 34.8575 154.724 32.0867 158.554 32.0867C162.323 32.0867 164.691 34.674 164.691 38.8045V39.7627H155.073V39.9312C155.029 40.4324 155.092 40.9373 155.258 41.4123C155.423 41.8874 155.688 42.3217 156.035 42.6865C156.381 43.0513 156.802 43.3382 157.268 43.5281C157.734 43.718 158.235 43.8066 158.737 43.788C159.398 43.8497 160.06 43.6967 160.627 43.3517C161.193 43.0067 161.633 42.4882 161.881 41.8731H164.536ZM155.087 37.8087H161.895C161.92 37.3581 161.852 36.9072 161.694 36.4842C161.537 36.0612 161.294 35.6753 160.98 35.3508C160.667 35.0262 160.29 34.7699 159.872 34.598C159.455 34.4262 159.007 34.3424 158.555 34.3521C158.1 34.3493 157.649 34.4367 157.228 34.6093C156.806 34.7819 156.423 35.0362 156.101 35.3576C155.778 35.6789 155.523 36.061 155.349 36.4817C155.175 36.9024 155.086 37.3534 155.087 37.8087ZM56.8978 13.1336C57.4839 13.0916 58.072 13.1801 58.6198 13.3929C59.1675 13.6056 59.6612 13.9373 60.0653 14.364C60.4694 14.7906 60.7737 15.3016 60.9564 15.8601C61.139 16.4186 61.1955 17.0107 61.1216 17.5936C61.1216 20.4607 59.5723 22.1093 56.8978 22.1093H53.6562V13.1321L56.8978 13.1336ZM55.0506 20.8397H56.7429C57.1615 20.8645 57.5805 20.7957 57.9692 20.6383C58.358 20.4808 58.7067 20.2387 58.9901 19.9295C59.2735 19.6203 59.4844 19.2519 59.6075 18.8509C59.7306 18.45 59.7627 18.0266 59.7016 17.6117C59.7584 17.1984 59.723 16.7776 59.5981 16.3795C59.4732 15.9815 59.2617 15.616 58.979 15.3092C58.6962 15.0024 58.3491 14.762 57.9625 14.6051C57.5759 14.4482 57.1594 14.3787 56.7429 14.4017H55.0506V20.8397ZM62.695 18.7188C62.6541 18.2745 62.7063 17.8266 62.8482 17.4036C62.9902 16.9806 63.2188 16.5919 63.5194 16.2622C63.8201 15.9326 64.1862 15.6693 64.5944 15.4891C65.0026 15.3089 65.4438 15.2159 65.89 15.2159C66.3362 15.2159 66.7774 15.3089 67.1856 15.4891C67.5938 15.6693 67.9599 15.9326 68.2605 16.2622C68.5612 16.5919 68.7898 16.9806 68.9318 17.4036C69.0737 17.8266 69.1259 18.2745 69.0849 18.7188C69.1294 19.1649 69.0798 19.6155 68.9395 20.0413C68.7992 20.4671 68.5712 20.8589 68.2703 21.1912C67.9694 21.5236 67.6022 21.7893 67.1923 21.9711C66.7825 22.1529 66.3391 22.2468 65.8907 22.2468C65.4424 22.2468 64.999 22.1529 64.5891 21.9711C64.1793 21.7893 63.8121 21.5236 63.5111 21.1912C63.2102 20.8589 62.9823 20.4671 62.842 20.0413C62.7016 19.6155 62.6521 19.1649 62.6965 18.7188H62.695ZM67.7101 18.7188C67.7101 17.2507 67.0497 16.3918 65.893 16.3918C64.7302 16.3918 64.0774 17.2507 64.0774 18.7188C64.0774 20.1989 64.7302 21.0503 65.893 21.0503C67.0512 21.0503 67.7101 20.1929 67.7101 18.7188ZM77.5762 22.1093H76.1893L74.7904 17.1198H74.6851L73.2907 22.1093H71.9174L70.0491 15.3358H71.4059L72.6183 20.5043H72.7191L74.112 15.3358H75.3936L76.7865 20.5043H76.8918L78.0997 15.3358H79.4369L77.5762 22.1093ZM81.0073 15.3358H82.2934V16.4113H82.3927C82.5622 16.0249 82.8481 15.7009 83.2105 15.4847C83.5729 15.2684 83.9937 15.1706 84.4143 15.2049C84.744 15.1802 85.0749 15.2299 85.3827 15.3504C85.6905 15.4709 85.9673 15.6591 86.1925 15.9011C86.4177 16.143 86.5856 16.4325 86.6837 16.7482C86.7819 17.0638 86.8077 17.3975 86.7594 17.7245V22.1093H85.4222V18.0599C85.4222 16.9709 84.9499 16.4294 83.9601 16.4294C83.7364 16.419 83.513 16.4571 83.3054 16.5411C83.0978 16.6251 82.9108 16.753 82.7572 16.916C82.6037 17.079 82.4871 17.2733 82.4157 17.4855C82.3442 17.6978 82.3194 17.923 82.343 18.1457V22.1093H81.0073V15.3358ZM88.8894 12.6914H90.2251V22.1078H88.8894V12.6914ZM92.0843 18.7188C92.0422 18.2739 92.0935 17.8252 92.2348 17.4013C92.3762 16.9774 92.6045 16.5877 92.9052 16.2572C93.206 15.9266 93.5724 15.6626 93.9811 15.4819C94.3897 15.3012 94.8317 15.2078 95.2785 15.2078C95.7254 15.2078 96.1673 15.3012 96.576 15.4819C96.9847 15.6626 97.3511 15.9266 97.6518 16.2572C97.9525 16.5877 98.1809 16.9774 98.3222 17.4013C98.4636 17.8252 98.5148 18.2739 98.4727 18.7188C98.5171 19.1649 98.4676 19.6155 98.3273 20.0413C98.187 20.4671 97.959 20.8589 97.6581 21.1912C97.3572 21.5236 96.99 21.7893 96.5801 21.9711C96.1703 22.1529 95.7269 22.2468 95.2785 22.2468C94.8302 22.2468 94.3868 22.1529 93.9769 21.9711C93.5671 21.7893 93.1999 21.5236 92.8989 21.1912C92.598 20.8589 92.37 20.4671 92.2297 20.0413C92.0894 19.6155 92.0399 19.1649 92.0843 18.7188ZM97.0979 18.7188C97.0979 17.2507 96.4375 16.3918 95.2808 16.3918C94.118 16.3918 93.4652 17.2507 93.4652 18.7188C93.4652 20.1989 94.118 21.0503 95.2808 21.0503C96.439 21.0503 97.0979 20.1929 97.0979 18.7188ZM99.8792 20.1929C99.8792 18.9745 100.788 18.2705 102.4 18.1712L104.235 18.066V17.4808C104.235 16.7663 103.762 16.3617 102.848 16.3617C102.101 16.3617 101.585 16.6354 101.436 17.1138H100.142C100.278 15.951 101.373 15.2034 102.91 15.2034C104.607 15.2034 105.565 16.0503 105.565 17.4808V22.1093H104.279V21.1571H104.174C103.959 21.4987 103.657 21.7771 103.3 21.9639C102.942 22.1508 102.541 22.2393 102.138 22.2206C101.854 22.2502 101.567 22.2199 101.295 22.1316C101.023 22.0433 100.772 21.899 100.559 21.7079C100.347 21.5169 100.176 21.2833 100.059 21.0224C99.9426 20.7614 99.8816 20.4789 99.8807 20.1929H99.8792ZM104.234 19.6153V19.0482L102.579 19.1535C101.647 19.2167 101.225 19.5341 101.225 20.1312C101.225 20.7404 101.753 21.0939 102.48 21.0939C102.693 21.1154 102.908 21.0939 103.112 21.0307C103.317 20.9674 103.506 20.8638 103.67 20.7259C103.833 20.588 103.968 20.4186 104.065 20.2278C104.161 20.037 104.219 19.8287 104.234 19.6153ZM107.322 18.7188C107.322 16.5783 108.423 15.223 110.135 15.223C110.558 15.2037 110.978 15.3052 111.345 15.5157C111.713 15.7261 112.013 16.0367 112.211 16.4113H112.311V12.6914H113.647V22.1078H112.367V21.0398H112.262C112.049 21.4121 111.737 21.7189 111.362 21.9271C110.987 22.1352 110.562 22.2367 110.133 22.2206C108.411 22.2206 107.322 20.8653 107.322 18.7188ZM108.703 18.7188C108.703 20.1553 109.38 21.0202 110.512 21.0202C111.641 21.0202 112.336 20.1433 112.336 18.7248C112.336 17.3138 111.632 16.4234 110.512 16.4234C109.387 16.4234 108.703 17.2958 108.703 18.7188ZM119.178 18.7188C119.136 18.2739 119.187 17.8252 119.329 17.4013C119.47 16.9774 119.698 16.5877 119.999 16.2572C120.3 15.9266 120.666 15.6626 121.075 15.4819C121.484 15.3012 121.926 15.2078 122.372 15.2078C122.819 15.2078 123.261 15.3012 123.67 15.4819C124.079 15.6626 124.445 15.9266 124.746 16.2572C125.046 16.5877 125.275 16.9774 125.416 17.4013C125.557 17.8252 125.609 18.2739 125.567 18.7188C125.611 19.1649 125.561 19.6155 125.421 20.0413C125.281 20.4671 125.053 20.8589 124.752 21.1912C124.451 21.5236 124.084 21.7893 123.674 21.9711C123.264 22.1529 122.821 22.2468 122.372 22.2468C121.924 22.2468 121.481 22.1529 121.071 21.9711C120.661 21.7893 120.294 21.5236 119.993 21.1912C119.692 20.8589 119.464 20.4671 119.324 20.0413C119.183 19.6155 119.134 19.1649 119.178 18.7188ZM124.192 18.7188C124.192 17.2507 123.533 16.3918 122.375 16.3918C121.213 16.3918 120.559 17.2507 120.559 18.7188C120.559 20.1989 121.213 21.0503 122.375 21.0503C123.533 21.0503 124.192 20.1929 124.192 18.7188ZM127.361 15.3358H128.647V16.4113H128.746C128.916 16.0249 129.202 15.7009 129.564 15.4847C129.927 15.2684 130.348 15.1706 130.768 15.2049C131.098 15.1802 131.429 15.2299 131.737 15.3504C132.044 15.4709 132.321 15.6591 132.546 15.9011C132.771 16.143 132.939 16.4325 133.038 16.7482C133.136 17.0638 133.162 17.3975 133.113 17.7245V22.1093H131.776V18.0599C131.776 16.9709 131.304 16.4294 130.314 16.4294C130.09 16.419 129.867 16.4571 129.659 16.5411C129.452 16.6251 129.265 16.753 129.111 16.916C128.957 17.079 128.841 17.2733 128.769 17.4855C128.698 17.6978 128.673 17.923 128.697 18.1457V22.1093H127.36L127.361 15.3358ZM140.666 13.6496V15.3659H142.134V16.4925H140.666V19.9748C140.666 20.6848 140.958 20.9962 141.624 20.9962C141.794 20.9954 141.965 20.9848 142.134 20.9646V22.0777C141.894 22.121 141.65 22.1441 141.406 22.1469C139.92 22.1469 139.329 21.6234 139.329 20.3178V16.4925H138.253V15.3659H139.329V13.6496H140.666ZM143.96 12.6914H145.284V16.4234H145.389C145.567 16.0333 145.861 15.7075 146.231 15.4906C146.601 15.2736 147.029 15.176 147.456 15.211C147.784 15.1932 148.111 15.248 148.416 15.3715C148.72 15.4949 148.993 15.684 149.216 15.9253C149.438 16.1665 149.605 16.4539 149.704 16.767C149.803 17.0801 149.831 17.4112 149.787 17.7365V22.1093H148.45V18.066C148.45 16.9829 147.946 16.4354 147.002 16.4354C146.772 16.4165 146.541 16.4481 146.324 16.5279C146.108 16.6077 145.912 16.7339 145.749 16.8975C145.587 17.0611 145.462 17.2583 145.384 17.4752C145.305 17.6921 145.275 17.9235 145.296 18.1532V22.1093H143.96V12.6914ZM157.582 20.2802C157.401 20.8989 157.008 21.4343 156.471 21.7925C155.935 22.1508 155.29 22.3092 154.649 22.2401C154.202 22.2522 153.759 22.1669 153.349 21.9902C152.938 21.8135 152.572 21.5495 152.274 21.2167C151.976 20.8839 151.754 20.4902 151.624 20.063C151.493 19.6358 151.457 19.1853 151.519 18.7428C151.459 18.2994 151.496 17.8483 151.626 17.4203C151.756 16.9922 151.977 16.5971 152.273 16.2616C152.569 15.9262 152.934 15.6582 153.342 15.4759C153.751 15.2936 154.194 15.2012 154.641 15.2049C156.526 15.2049 157.663 16.4925 157.663 18.6195V19.0858H152.88V19.161C152.859 19.4097 152.89 19.66 152.972 19.8959C153.053 20.1318 153.183 20.348 153.353 20.5308C153.523 20.7135 153.729 20.8586 153.959 20.9569C154.188 21.0552 154.436 21.1044 154.685 21.1015C155.005 21.1393 155.328 21.0814 155.615 20.9352C155.901 20.789 156.138 20.561 156.295 20.2802H157.582ZM152.88 18.0975H156.302C156.319 17.8701 156.288 17.6415 156.212 17.4266C156.135 17.2117 156.014 17.0153 155.857 16.8499C155.7 16.6846 155.51 16.5539 155.299 16.4665C155.089 16.379 154.862 16.3367 154.634 16.3421C154.403 16.3393 154.173 16.3828 153.959 16.47C153.745 16.5572 153.55 16.6865 153.387 16.8501C153.223 17.0137 153.094 17.2083 153.007 17.4226C152.92 17.6368 152.877 17.8663 152.88 18.0975Z" fill="white"/>
</g>
<defs>
<clipPath id="clip0_246_228">
<rect width="180" height="60.1685" fill="white"/>
</clipPath>
</defs>
</svg>
