<svg width="259" height="136" viewBox="0 0 259 136" fill="none" xmlns="http://www.w3.org/2000/svg">
<path fill-rule="evenodd" clip-rule="evenodd" d="M0.047813 71.7143C0.23904 71.4286 0.478075 71.4762 0.717109 71.5714C2.725 72.1905 4.49386 73.2381 6.11929 74.5714C9.41797 77.2381 11.8083 80.5238 13.0035 84.6667C13.2903 85.6667 13.4815 86.7143 13.7683 87.7143C13.8161 87.9524 13.9596 88.1429 14.0552 88.3333C14.103 88.3333 14.1508 88.2857 14.1986 88.2857C14.1986 88.1905 14.1986 88.0952 14.1986 88C13.8162 85.7619 13.3382 83.5714 13.0035 81.3333C12.7645 79.9048 12.7166 78.4762 12.621 77.0476C12.5254 75.5238 12.5732 74 12.3342 72.4762C12.2386 71.7143 11.7605 71 11.4258 70.2857C11.378 70.1905 11.2346 70.1429 11.0912 70.1429C8.89204 69.7619 7.45791 68.381 6.31054 66.619C4.97195 64.4762 4.15918 62.1429 3.53769 59.6667C2.86839 56.8571 2.39032 54.0476 2.53375 51.1905C2.53375 50.7619 2.58157 50.2857 2.67718 49.8571C2.7728 49.3809 2.8684 49.381 3.25085 49.619C5.92804 51.5238 7.93595 53.9524 9.46577 56.8571C10.6131 59 11.4736 61.2857 11.7127 63.7143C11.9039 65.4286 11.8083 67.1905 11.9039 68.9048C11.9039 69.3333 11.9995 69.8095 12.0473 70.2381C12.0473 70.3333 12.0951 70.381 12.1907 70.5238C12.2863 70.3333 12.3342 70.2381 12.3342 70.1905C12.4298 67.9524 12.4776 65.7619 12.6689 63.5238C12.8601 61.3333 13.1469 59.1429 13.3859 56.9524C13.4337 56.3809 13.5771 55.8571 13.6249 55.2857C13.6249 55 13.4815 54.7143 13.4337 54.4762C13.3381 54 13.2903 53.5238 13.1469 53.0476C13.0513 52.8095 12.9079 52.5238 12.6689 52.381C11.139 51.5714 10.1351 50.2857 9.46577 48.7143C8.74867 47.0952 8.46182 45.4286 8.3662 43.7143C8.27059 41.5238 8.17496 39.3333 8.27058 37.1429C8.36619 35.0476 8.70086 33 9.46577 31.0476C9.51358 30.9048 9.65695 30.8095 9.75256 30.6667C9.84818 30.7619 9.9916 30.8095 10.0872 30.9524C11.8083 32.9524 13.1469 35.2381 13.9596 37.7619C14.5333 39.5714 14.8202 41.4286 14.9158 43.3333C15.0114 46.2857 14.4854 49.1905 13.7683 52C13.6727 52.4286 13.7206 52.8095 14.0074 53.2857C14.1031 52.9524 14.1986 52.7143 14.2942 52.4762C15.1548 48.1429 16.4933 43.9048 18.2144 39.8095C18.549 39 18.31 38.2381 18.4534 37.4286C18.549 36.8571 18.31 36.4762 17.8797 36.0952C16.5412 34.8095 15.8719 33.0952 15.6807 31.2857C15.2982 28 15.8241 24.8571 16.6368 21.6667C17.1148 19.8571 17.6407 18.0476 18.4534 16.381C18.7403 15.8095 19.075 15.2857 19.3618 14.7619C19.4096 14.6667 19.553 14.5714 19.6965 14.381C19.9355 14.8571 20.1745 15.2857 20.3658 15.7143C21.3219 17.8571 21.8955 20.0952 22.0868 22.4286C22.3736 26.2857 21.9434 30 20.4135 33.5714C20.0789 34.381 19.6008 35.1905 19.2183 36C19.0749 36.3333 19.0749 36.7143 18.9793 37.0476C19.0749 37.0952 19.1227 37.0952 19.2183 37.1429C19.3618 36.8571 19.5052 36.619 19.6486 36.3333C20.7004 34.3333 21.6565 32.2857 22.8038 30.3333C24.0468 28.1905 25.5288 26.1429 26.8196 24.0476C27.0587 23.619 27.0587 23.0476 27.2021 22.5714C27.2499 22.4762 27.2021 22.3333 27.2499 22.1905C27.3455 21.7143 27.2977 21.2857 26.9152 20.8571C26.0547 19.9048 25.7201 18.6667 25.6245 17.4286C25.2421 13.0952 26.7718 9.33333 29.0188 5.7619C30.0227 4.09524 31.2179 2.61905 32.6999 1.33333C33.178 0.904762 33.3692 0.952381 33.417 1.57143C33.5605 2.95238 33.7038 4.33333 33.7038 5.7619C33.7516 9.33333 33.0823 12.8095 31.6003 16.0952C30.7398 17.9524 29.5925 19.5714 28.2061 21.0952C27.7758 21.5714 27.728 22.0476 27.728 22.7619C27.9671 22.5714 28.1105 22.4762 28.2061 22.3333C30.214 19.7143 32.3652 17.2381 34.7078 14.9048C35.7117 13.9048 36.8113 12.9524 37.8152 11.9524C37.9587 11.8095 38.1021 11.619 38.1021 11.4286C37.9109 9.33333 38.7235 7.61905 40.0621 6.04762C41.6398 4.19048 43.6955 3 45.9424 2.14286C47.6157 1.52381 49.2889 0.904762 50.9621 0.285714C51.0577 0.238095 51.1534 0.238095 51.2968 0.190476C51.2968 0.380952 51.3446 0.523809 51.2968 0.666667C50.2928 4.04762 48.6196 7.04762 45.8468 9.33333C43.7911 11 41.4486 12 38.7714 12.0476C38.5802 12.0476 38.2933 12.1429 38.1499 12.2857C36.7635 13.5714 35.3293 14.8095 34.0385 16.1429C32.7955 17.381 31.696 18.7619 30.5486 20.0952C30.4052 20.2381 30.3096 20.4286 30.214 20.5714C30.7876 20.8571 31.3135 20.6667 31.5047 20.1905C32.3174 18.1905 33.8472 17.0476 35.8551 16.3333C37.7196 15.6667 39.5841 15.6667 41.4964 15.9524C43.074 16.1429 44.6038 16.4286 46.1814 16.6667C46.277 16.6667 46.3727 16.7143 46.4683 16.7143C46.8986 16.8095 46.9463 16.9524 46.6595 17.2381C45.9424 18 45.2253 18.8571 44.4126 19.5238C41.8788 21.6667 38.9148 22.7143 35.5683 22.4286C34.2775 22.3333 33.0345 21.9524 31.935 21.2857C31.6003 21.0952 31.3135 21 30.931 21.1429C30.692 21.2381 30.4052 21.2857 30.1183 21.2857C29.6881 21.2857 29.449 21.4762 29.21 21.7619C26.6762 25.0952 24.4293 28.6667 22.517 32.381C22.4214 32.5238 22.3736 32.6667 22.278 32.8571C22.278 32.9048 22.278 32.9524 22.278 33C22.8517 33.1429 23.4254 32.8571 23.521 32.381C24.0947 29.4762 26.007 27.7619 28.732 26.8095C30.5486 26.1905 32.4131 26 34.3254 25.9048C35.6161 25.8571 36.9547 25.7619 38.2455 25.6667C38.7236 25.619 38.8192 25.7619 38.5802 26.1429C36.2376 29.9524 33.1302 32.7619 28.5407 33.6667C27.0587 33.9524 25.6245 33.8571 24.1903 33.381C23.8078 33.2381 23.4732 33.2381 23.0907 33.4762C22.8517 33.619 22.6127 33.7143 22.3737 33.7619C21.8 33.8095 21.6087 34.1905 21.3697 34.619C19.8877 37.7143 18.5968 40.8571 17.5451 44.0952C17.0192 45.6667 16.5889 47.2857 16.1109 48.8571C16.0631 49 16.0631 49.1429 16.0631 49.2857C16.7802 49.2381 17.1148 48.8571 17.1148 48.2381C17.1148 45.4286 18.2145 43.1905 20.3658 41.381C22.1824 39.9048 24.2381 38.9524 26.3894 38.0952C27.8236 37.5238 29.2578 37 30.692 36.4286C30.8354 36.381 30.9788 36.3333 31.2657 36.2857C31.1222 36.8095 31.0267 37.1905 30.8832 37.619C30.1661 39.6667 29.2578 41.619 27.9192 43.3333C26.0069 45.9048 23.6166 47.9524 20.4613 48.8571C19.6486 49.0952 18.6925 49.0476 17.832 49.1905C17.5451 49.2381 17.3061 49.3333 17.0671 49.4762C16.8758 49.5714 16.7324 49.8095 16.5412 49.9048C15.824 50.2381 15.5372 50.8571 15.4416 51.619C15.0591 53.8571 14.5811 56.0476 14.1986 58.2857C13.9118 59.9048 13.7684 61.5714 13.6249 63.1905C13.4815 64.7143 13.4337 66.2381 13.3859 67.7619C13.3859 67.8571 13.3859 68 13.4337 68.0952C13.9596 68 14.4377 67.381 14.3421 66.8571C13.6728 63.4762 14.6767 60.4762 16.6846 57.7619C18.2623 55.5714 20.3657 53.9524 22.4692 52.3333C23.3775 51.6667 24.238 50.9524 25.1464 50.2381C25.242 50.1429 25.3855 50.0476 25.6245 49.9048C25.6245 50.5238 25.6723 51 25.6245 51.4762C25.2421 55.3333 24.1903 58.9524 21.8955 62.1429C20.1745 64.5714 18.071 66.5238 15.1548 67.4286C14.9636 67.4762 14.7723 67.7143 14.6289 67.9048C14.3899 68.1905 14.2464 68.5714 13.9596 68.8095C13.5293 69.1905 13.4337 69.619 13.4815 70.1429C13.625 72.7143 13.6249 75.3333 13.864 77.9048C14.1508 80.6667 14.6767 83.4286 15.1069 86.1905C15.1069 86.3333 15.2026 86.4762 15.2504 86.619C15.8719 86.1429 15.9675 85.4286 15.6328 84.8571C15.0113 83.9048 14.8679 82.8095 14.8201 81.7143C14.7723 79.381 15.4416 77.1905 16.5412 75.0952C17.9276 72.5238 19.7442 70.2381 21.5131 67.9048C22.0868 67.1905 22.6127 66.4286 23.1863 65.6667C23.282 65.5238 23.3775 65.4286 23.5688 65.1905C23.6644 65.4762 23.76 65.6667 23.76 65.8571C24.1425 68.4762 24.1425 71.0952 23.6644 73.6667C23.2341 76.1429 22.278 78.4762 21.0351 80.6667C19.9833 82.4286 18.6447 83.9524 16.9714 85.1429C16.6846 85.3333 16.4934 85.6667 16.35 86C16.111 86.4762 15.8719 86.9524 15.6807 87.4762C15.5851 87.7143 15.5373 88 15.5851 88.1905C16.9237 93.7143 18.8837 99.0476 21.5131 104.095C21.6087 104.238 21.7043 104.381 21.7999 104.571C22.1345 104.19 22.2302 103.476 21.9434 103.19C20.6048 101.905 20.2223 100.238 19.8876 98.5714C19.3618 96.1905 19.8398 93.9048 20.4613 91.619C21.274 88.6667 22.5171 85.8571 23.6166 83C23.76 82.619 23.9512 82.1905 24.1424 81.7143C24.3337 81.9524 24.4293 82.0952 24.4771 82.2857C25.5288 84.619 26.1504 87 26.3894 89.5238C26.6763 92.6667 26.3416 95.7619 25.3376 98.8095C24.9074 100.143 24.2859 101.381 23.4254 102.476C22.8995 103.19 22.7083 103.952 22.517 104.762C22.3258 105.619 22.5649 106.238 22.9473 106.952C25.3377 110.952 28.1105 114.667 31.3135 118C31.5047 118.19 31.6959 118.286 31.935 118.429C31.9828 118.19 32.0306 117.905 31.9828 117.667C31.935 117.476 31.7916 117.19 31.6482 117.095C30.214 116.333 29.3534 115.095 28.5885 113.762C27.8714 112.476 27.4412 111.048 27.3934 109.571C27.3456 108.095 27.2021 106.619 27.2977 105.143C27.3934 103.333 27.728 101.476 27.9192 99.6667C28.0148 98.6667 28.1582 97.6667 28.2538 96.619C28.2538 96.4286 28.3495 96.2381 28.3973 95.9048C28.6842 96.1905 28.8753 96.3333 29.0188 96.5238C31.5525 99.6667 33.178 103.19 33.7038 107.238C34.0385 109.81 33.9907 112.381 33.2736 114.857C33.1779 115.238 33.0346 115.667 32.8911 116C32.6043 116.667 32.6043 117.333 32.5565 118C32.5565 118.905 32.8433 119.571 33.5604 120.19C37.146 123.381 41.0183 126.048 45.3687 128.095C45.56 128.19 45.799 128.476 45.9902 128.143C46.1336 127.905 45.8467 127.286 45.5599 127.238C42.2612 126.571 40.4924 124.238 39.3451 121.333C38.4846 119.143 38.0543 116.857 37.7196 114.571C37.4806 113 37.1937 111.429 36.9547 109.857C36.9069 109.714 36.9547 109.524 36.9547 109.381C37.1459 109.429 37.3372 109.381 37.4806 109.476C40.2534 111 42.5003 113.048 44.0779 115.857C44.8906 117.286 45.5121 118.762 45.9424 120.333C46.3727 121.857 46.5161 123.429 46.4205 125C46.3727 126.095 46.2771 127.143 46.6117 128.19C46.7551 128.571 46.8985 128.81 47.281 128.952C50.5797 130.286 53.9739 131.333 57.4638 131.905C58.0375 132 58.3244 132.286 58.42 132.857C58.4678 133.238 58.3243 133.381 57.9419 133.333C54.7388 132.857 51.6314 132.095 48.6674 130.905C47.6634 130.524 46.8507 130.857 45.9424 131C45.799 131.048 45.6555 131.19 45.5599 131.381C44.3647 133.619 42.4525 134.81 40.0621 135.381C39.0582 135.619 38.0064 135.714 36.9547 135.905C36.8591 135.905 36.7635 135.952 36.6679 136C36.0464 136 35.4249 136 34.8512 136C34.7556 135.952 34.7078 135.905 34.6121 135.905C32.8433 135.762 31.1223 135.429 29.449 134.905C28.1104 134.476 26.8197 134 25.7201 133.095C25.1465 132.619 25.1465 132.524 25.7201 132.048C27.7758 130.381 30.0705 129.048 32.6521 128.286C36.2376 127.19 39.7275 127.286 43.074 128.952C43.7911 129.286 44.5082 129.714 45.2253 130.048C45.5599 130.19 45.8468 130.381 46.2292 130C46.038 129.905 45.8946 129.81 45.7512 129.762C41.4485 127.81 37.5284 125.238 33.9429 122.095C33.7038 121.905 33.3692 121.762 33.0824 121.667C32.7477 121.571 32.4131 121.571 32.0784 121.524C31.7438 121.476 31.5047 121.571 31.2657 121.81C30.3095 122.857 29.1144 123.476 27.728 123.714C25.7679 124.095 23.8556 123.81 21.9911 123.286C19.3618 122.619 17.067 121.333 14.8679 119.81C13.864 119.095 12.9556 118.286 12.1907 117.238C11.7127 116.571 11.7605 116.429 12.5254 116.143C15.0591 115.095 17.7364 114.619 20.5092 114.762C23.521 114.905 26.246 115.762 28.5407 117.667C29.5447 118.476 30.4052 119.381 31.3135 120.286C31.5526 120.524 31.7916 120.857 32.3175 120.667C32.174 120.476 32.0784 120.333 31.935 120.238C30.7876 119 29.5446 117.762 28.4451 116.476C26.3894 114.095 24.5727 111.524 22.8995 108.857C22.8039 108.667 22.6604 108.524 22.4692 108.381C22.0389 108.095 21.5609 107.81 21.1306 107.524C20.8916 107.333 20.6526 107.381 20.3658 107.476C19.8877 107.667 19.3618 107.905 18.8837 108C16.3021 108.476 13.9596 107.762 11.8561 106.286C9.08328 104.381 6.93202 101.905 5.21097 99.0476C4.63729 98.0952 4.30261 97.0476 3.92015 96C3.72892 95.4286 3.82456 95.2381 4.44605 95.2857C5.64122 95.3333 6.83642 95.3333 7.98378 95.5238C12.2864 96.2857 15.6807 98.619 18.2622 102.095C19.2184 103.381 19.9832 104.857 20.7959 106.286C20.9872 106.619 21.1306 106.905 21.6565 106.905C21.6087 106.714 21.5609 106.571 21.4652 106.476C20.6047 104.762 19.6486 103.095 18.8837 101.333C17.7841 98.8095 16.7802 96.2381 15.8241 93.6667C15.2026 92.0952 14.9635 90.381 13.7683 89.0952C13.4815 88.8095 13.2425 88.7143 12.86 88.7143C12.2385 88.7619 11.6171 88.7619 10.9956 88.619C9.08334 88.2381 7.60129 87.0952 6.35831 85.6667C3.39429 82.3333 1.48201 78.381 0.334648 74.0952C0.191227 73.619 0.0956135 73.0952 0 72.619C0.0478074 72.2857 0.047813 72 0.047813 71.7143ZM221.441 135.857C220.676 135.762 219.959 135.667 219.194 135.524C216.995 135.143 214.987 134.381 213.505 132.619C213.171 132.238 212.932 131.762 212.645 131.333C212.549 131.19 212.502 131 212.358 131C211.545 130.762 210.78 130.333 209.92 130.667C206.765 131.857 203.514 132.714 200.215 133.19C199.833 133.238 199.689 133.095 199.737 132.714C199.785 132.19 200.072 131.857 200.645 131.762C204.183 131.19 207.53 130.143 210.828 128.81C211.259 128.667 211.402 128.381 211.545 127.952C211.88 126.952 211.832 125.952 211.737 124.952C211.498 121.857 212.31 119 213.744 116.238C215.274 113.286 217.569 111.048 220.485 109.429C220.677 109.333 220.916 109.286 221.155 109.19C221.155 109.429 221.25 109.667 221.202 109.857C220.772 112.333 220.39 114.857 219.912 117.333C219.529 119.381 218.955 121.381 217.856 123.143C216.9 124.714 215.561 125.952 213.84 126.714C213.553 126.857 213.219 126.905 212.884 126.952C212.31 127 212.071 127.429 212.263 128.048C212.502 127.952 212.741 127.857 212.98 127.762C217.234 125.762 221.011 123.143 224.501 120.048C225.218 119.381 225.648 118.714 225.601 117.714C225.553 117.048 225.553 116.429 225.314 115.81C224.453 113.619 224.166 111.333 224.262 109C224.453 104.714 225.744 100.857 228.23 97.381C228.565 96.9048 228.947 96.4762 229.33 96.0476C229.425 95.9524 229.569 95.8571 229.76 95.6667C229.855 96.1905 229.903 96.5714 229.951 96.9524C230.19 98.7619 230.429 100.571 230.62 102.381C230.812 104.19 230.955 106 230.859 107.857C230.812 109.286 230.668 110.714 230.19 112.048C229.616 113.619 228.756 115.048 227.465 116.143C227.226 116.333 226.939 116.524 226.652 116.667C226.222 116.905 225.935 117.524 226.126 118C226.174 118.048 226.366 118.143 226.413 118.095C226.605 118 226.748 117.81 226.891 117.667C230.238 114.19 233.058 110.333 235.497 106.19C235.736 105.762 235.831 105.333 235.736 104.857C235.592 104.429 235.592 103.952 235.497 103.476C235.449 103.286 235.401 103.095 235.258 102.952C233.154 100.286 232.198 97.1429 231.815 93.8571C231.385 89.7619 232.055 85.8571 233.728 82.0952C233.823 81.9048 233.919 81.7619 234.062 81.5238C234.158 81.7143 234.254 81.7619 234.302 81.9048C235.258 84.3333 236.262 86.7619 237.122 89.2381C237.887 91.2857 238.413 93.3809 238.556 95.5714C238.7 97.2857 238.317 99 237.744 100.619C237.409 101.524 237.027 102.333 236.309 102.952C236.023 103.238 236.023 103.857 236.357 104.429C236.501 104.238 236.596 104.095 236.692 103.905C238.126 101.143 239.417 98.3333 240.421 95.3809C241.234 92.9524 241.903 90.5238 242.62 88.0952C242.668 87.8571 242.62 87.5238 242.524 87.2857C242.333 86.7619 242.094 86.2857 241.855 85.7619C241.712 85.5238 241.568 85.1905 241.329 85.0476C238.987 83.4762 237.457 81.2857 236.262 78.8095C235.21 76.619 234.541 74.2857 234.302 71.8571C234.11 69.8095 234.158 67.7143 234.445 65.6667C234.445 65.5238 234.493 65.381 234.541 65.2857C234.541 65.2381 234.588 65.2381 234.636 65.1429C234.732 65.2381 234.827 65.2857 234.875 65.381C236.644 67.7619 238.508 70.1429 240.23 72.5714C241.52 74.381 242.524 76.3333 243.05 78.4762C243.433 80.1429 243.576 81.7619 243.098 83.4286C242.955 83.8571 242.811 84.2857 242.572 84.619C242.285 85 242.237 85.3333 242.476 85.7619C242.572 85.9524 242.668 86.1905 242.859 86.5238C243.002 86.2381 243.098 86.1429 243.098 86C243.528 83.5238 243.958 81.0476 244.293 78.5714C244.676 75.5714 244.819 72.5714 244.771 69.5714C244.771 69.3333 244.628 69.0952 244.484 68.9048C244.389 68.7143 244.15 68.5714 244.054 68.381C243.672 67.6667 243.098 67.2381 242.333 66.9524C240.038 66.1905 238.365 64.5714 236.931 62.7143C234.684 59.8095 233.393 56.5238 232.867 52.9048C232.724 52.0476 232.676 51.1429 232.58 50.2857C232.58 50.1429 232.628 50 232.628 49.7619C232.82 49.8571 232.915 49.9048 233.011 50C234.875 51.4762 236.74 52.9048 238.556 54.4286C240.755 56.3333 242.62 58.4762 243.528 61.3333C244.054 63.0476 244.341 64.8095 243.863 66.619C243.719 67.1429 244.102 67.6667 244.771 67.9524C244.771 67.6667 244.771 67.4286 244.771 67.1905C244.628 65.1905 244.484 63.2381 244.341 61.2381C244.054 58 243.48 54.8095 242.763 51.619C242.668 51.2857 242.62 50.9524 242.524 50.619C242.524 50.5714 242.524 50.5714 242.476 50.5238C241.903 49.9048 241.233 49.3333 240.469 49C236.979 49.1429 234.302 47.4762 231.959 45.1905C229.521 42.8571 228.039 39.9048 227.035 36.7619C226.987 36.619 226.987 36.4762 226.939 36.2381C227.13 36.2857 227.274 36.2381 227.37 36.2857C229.569 37.1429 231.816 38 234.015 38.9524C235.736 39.7143 237.313 40.6667 238.652 42.0476C240.325 43.7619 241.138 45.8571 241.09 48.2381C241.09 48.7143 241.377 49.0476 242.094 49.1905C242.094 49 242.094 48.8571 242.046 48.7143C240.708 43.7619 238.939 39 236.74 34.381C236.548 34 236.262 33.8095 235.831 33.5714C234.875 33.0952 233.967 33.1905 232.963 33.4762C230.812 34.0476 228.756 33.4762 226.748 32.619C223.927 31.381 221.824 29.3333 220.103 26.8095C219.912 26.5238 219.72 26.2381 219.577 25.9524C219.338 25.5714 219.434 25.4286 219.912 25.4762C221.011 25.5238 222.159 25.619 223.258 25.6667C225.123 25.7619 226.939 25.9048 228.756 26.4286C230.286 26.8571 231.672 27.5238 232.819 28.6667C233.776 29.619 234.397 30.8095 234.636 32.1429C234.732 32.7143 235.305 33 235.975 32.8571C235.927 32.7143 235.831 32.5238 235.783 32.381C233.823 28.5714 231.577 24.9524 228.947 21.5714C228.756 21.2857 228.517 21.2381 228.182 21.1429C227.178 20.8571 226.318 21.1905 225.409 21.5714C222.445 22.8571 219.434 22.5238 216.565 21.1905C214.557 20.2857 212.932 18.9048 211.593 17.1905C211.259 16.7619 211.306 16.6667 211.832 16.5714C214.079 16.2381 216.374 15.8095 218.621 15.6667C221.298 15.5238 223.784 16.2381 225.648 18.3333C226.031 18.7619 226.318 19.3333 226.605 19.8571C226.939 20.4762 227.178 20.619 227.991 20.4286C227.656 20 227.322 19.5714 226.987 19.1905C225.218 17.0952 223.354 15.0952 221.298 13.2381C220.868 12.8095 220.342 12.4286 219.864 12.0952C219.72 12 219.577 11.9048 219.386 11.9048C215.896 11.8095 213.123 10.2857 210.781 7.80952C208.82 5.7619 207.577 3.28571 206.813 0.571429C206.765 0.428571 206.765 0.238095 206.765 0C207.338 0.190476 207.769 0.380952 208.247 0.523809C210.016 1.19048 211.832 1.80952 213.601 2.57143C215.944 3.61905 217.952 5.19048 219.194 7.52381C219.816 8.66667 220.103 9.85714 220.007 11.1905C220.007 11.381 220.103 11.619 220.246 11.7143C223.784 14.8571 226.939 18.3333 229.855 22.0952C229.951 22.2381 230.047 22.4286 230.238 22.5238C230.381 21.9048 230.381 21.4286 229.951 21C227.704 18.5714 226.127 15.8095 225.266 12.619C224.597 10.0952 224.214 7.47619 224.358 4.85714C224.406 3.71429 224.549 2.52381 224.644 1.38095C224.692 0.857143 224.884 0.809524 225.314 1.14286C227.369 2.90476 228.804 5.09524 230.094 7.42857C231.098 9.33333 231.863 11.3333 232.246 13.4286C232.628 15.4762 232.676 17.4762 231.911 19.4286C231.672 19.9524 231.29 20.4286 231.003 20.9524C230.907 21.1429 230.812 21.381 230.812 21.619C230.812 22.0952 230.955 22.5714 230.955 23.0476C231.003 23.619 231.29 24 231.576 24.4286C234.206 28.0952 236.453 32 238.413 36.0952C238.556 36.381 238.7 36.6667 238.939 36.9048C239.13 36.4762 239.034 36.0476 238.795 35.6667C237.791 33.9524 237.074 32.0952 236.596 30.1905C236.023 27.8095 235.831 25.381 235.975 22.9048C236.118 20.381 236.692 17.9524 237.696 15.619C237.887 15.1429 238.174 14.7143 238.365 14.2381C238.413 14.2381 238.461 14.2381 238.556 14.2381C238.843 14.7143 239.13 15.1429 239.417 15.619C240.325 17.3333 240.994 19.1429 241.425 21.0476C241.807 22.8095 242.19 24.5714 242.429 26.381C242.763 28.7619 242.763 31.1429 241.903 33.381C241.473 34.4286 240.899 35.381 240.038 36.1429C239.847 36.2857 239.752 36.619 239.752 36.8571C239.704 37.5238 239.656 38.1905 239.752 38.8095C239.799 39.2857 240.038 39.7619 240.23 40.2381C241.759 44.1429 243.002 48.0952 243.863 52.1905C243.911 52.4286 244.006 52.7143 244.102 53.0952C244.437 52.6667 244.484 52.2857 244.389 51.9048C244.054 50.3333 243.672 48.7619 243.433 47.1905C243.098 45.2381 243.098 43.2381 243.337 41.2381C243.672 38.3333 244.628 35.619 246.253 33.1905C246.827 32.3333 247.448 31.5238 248.118 30.6667C248.357 30.381 248.548 30.4286 248.644 30.8571C248.978 32.0476 249.361 33.2381 249.552 34.4286C250.03 37.0952 250.03 39.7619 249.886 42.4286C249.743 44.4762 249.552 46.5238 248.739 48.4286C248.07 50.0476 247.066 51.4286 245.441 52.2381C245.249 52.3333 245.058 52.5714 245.01 52.7619C244.819 53.4286 244.628 54.0952 244.484 54.8095C244.437 55.0952 244.484 55.4286 244.532 55.7143C244.771 57.5714 245.058 59.4286 245.249 61.2857C245.441 63.0476 245.488 64.8095 245.584 66.5714C245.632 67.7143 245.68 68.9048 245.727 70.0476C245.727 70.0952 245.775 70.1905 245.823 70.2857C246.205 70.0476 246.253 69.6667 246.253 69.3333C246.205 68.381 246.205 67.4286 246.205 66.4762C246.158 61.4286 247.879 57 251.034 53.0952C252.086 51.7619 253.376 50.5714 254.763 49.5714C255.241 49.1905 255.432 49.2857 255.48 49.9048C255.528 51.0952 255.623 52.2857 255.576 53.4762C255.432 56.0476 254.954 58.5714 254.189 61.0476C253.52 63.1429 252.755 65.2381 251.464 67.0476C250.46 68.4286 249.265 69.5714 247.544 69.9048C246.875 70.0476 246.588 70.381 246.349 70.9524C245.871 71.9524 245.775 73 245.727 74.0952C245.68 75.619 245.584 77.0952 245.441 78.619C245.201 80.7619 244.915 82.9048 244.628 85.0476C244.484 85.9524 244.245 86.8571 244.054 87.7619C244.006 87.9048 244.006 88.0476 244.006 88.1905C244.054 88.1905 244.102 88.2381 244.197 88.2381C244.293 88.0476 244.437 87.8571 244.484 87.619C244.962 86 245.297 84.3333 245.871 82.8095C247.592 78.381 250.651 75.0952 254.763 72.7143C255.623 72.1905 256.579 71.8571 257.536 71.4762C258.109 71.2381 258.348 71.381 258.253 72C258.061 73.2381 257.822 74.5238 257.44 75.7143C256.484 78.4286 255.289 81.0476 253.615 83.381C252.325 85.1429 250.938 86.8095 248.883 87.8095C247.783 88.381 246.588 88.6667 245.345 88.4286C245.01 88.381 244.819 88.5238 244.58 88.7619C243.385 90.0476 243.098 91.7619 242.524 93.3333C241.52 95.9048 240.564 98.5238 239.465 101.048C238.7 102.81 237.744 104.476 236.883 106.19C236.835 106.333 236.787 106.476 236.692 106.619C237.218 106.619 237.361 106.286 237.552 106C238.365 104.619 239.13 103.143 240.086 101.81C242.668 98.3333 246.062 96 250.365 95.2381C251.512 95.0476 252.755 95.0476 253.902 95C254.524 94.9524 254.667 95.1429 254.428 95.7143C254.046 96.7619 253.663 97.8095 253.137 98.7619C251.464 101.619 249.265 104.095 246.492 106C244.389 107.476 242.046 108.19 239.465 107.714C238.939 107.619 238.461 107.381 237.983 107.19C237.696 107.048 237.457 107.048 237.218 107.238C236.787 107.524 236.309 107.81 235.879 108.095C235.688 108.19 235.544 108.381 235.449 108.571C233.823 111.238 231.959 113.81 229.903 116.19C228.804 117.476 227.561 118.714 226.413 119.952C226.318 120.095 226.174 120.238 226.031 120.381C226.557 120.571 226.748 120.286 227.035 120C227.943 119.143 228.804 118.19 229.808 117.381C232.15 115.476 234.875 114.619 237.839 114.476C240.612 114.333 243.241 114.81 245.823 115.857C246.54 116.143 246.588 116.286 246.158 116.952C245.44 117.952 244.532 118.81 243.48 119.524C241.281 121.048 238.987 122.333 236.357 123C234.445 123.476 232.58 123.81 230.62 123.429C229.234 123.143 228.039 122.524 227.083 121.524C226.844 121.286 226.605 121.143 226.27 121.238C225.935 121.286 225.601 121.286 225.266 121.381C224.979 121.476 224.645 121.619 224.405 121.81C220.82 124.905 216.9 127.476 212.597 129.476C212.454 129.524 212.31 129.619 212.119 129.714C212.502 130.095 212.788 129.905 213.123 129.762C213.84 129.381 214.557 129 215.274 128.667C218.669 127 222.159 126.905 225.696 128C228.278 128.762 230.525 130.095 232.628 131.762C233.202 132.238 233.202 132.333 232.628 132.857C231.529 133.762 230.286 134.238 228.947 134.667C227.274 135.19 225.553 135.524 223.784 135.667C223.688 135.667 223.593 135.714 223.545 135.762C222.684 135.857 222.063 135.857 221.441 135.857Z" fill="#FFBA53"/>
</svg>
