<svg width="297" height="601" viewBox="0 0 297 601" fill="none" xmlns="http://www.w3.org/2000/svg">
<path fill-rule="evenodd" clip-rule="evenodd" d="M250.563 0C276.025 0 296.666 20.6412 296.666 46.1035V554.244C296.666 579.707 276.025 600.348 250.563 600.348H46.1035C20.6412 600.348 0 579.707 0 554.244V46.1035C0 20.6413 20.6412 0 46.1035 0H250.563ZM221.497 18.0405H250.563C266.061 18.0405 278.626 30.6047 278.626 46.1035V554.244C278.626 569.743 266.061 582.307 250.563 582.307H46.1035C30.6047 582.307 18.0405 569.743 18.0405 554.244V46.1035C18.0405 30.6048 30.6048 18.0405 46.1035 18.0405H76.171V24.054C76.171 32.3569 82.9019 39.0878 91.2048 39.0878H206.464C214.766 39.0878 221.497 32.3569 221.497 24.054V18.0405Z" fill="#F1F2F5"/>
</svg>
