<svg width="110" height="18" viewBox="0 0 110 18" fill="none" xmlns="http://www.w3.org/2000/svg">
<path fill-rule="evenodd" clip-rule="evenodd" d="M9.35564 13.8348L3.57354 18L5.7031 11.1506L0 6.87537L7.09825 6.80739L9.35564 0L11.613 6.80739L18.7113 6.87537L13.0082 11.1506L15.1377 18L9.35564 13.8348Z" fill="#FFB14F"/>
<path fill-rule="evenodd" clip-rule="evenodd" d="M31.8879 13.8348L26.1058 18L28.2353 11.1506L22.5322 6.87537L29.6305 6.80739L31.8879 0L34.1453 6.80739L41.2435 6.87537L35.5404 11.1506L37.67 18L31.8879 13.8348Z" fill="#FFB14F"/>
<path fill-rule="evenodd" clip-rule="evenodd" d="M54.4211 13.8348L48.639 18L50.7685 11.1506L45.0654 6.87537L52.1637 6.80739L54.4211 0L56.6785 6.80739L63.7767 6.87537L58.0736 11.1506L60.2032 18L54.4211 13.8348Z" fill="#FFB14F"/>
<path fill-rule="evenodd" clip-rule="evenodd" d="M76.9533 13.8348L71.1712 18L73.3008 11.1506L67.5977 6.87537L74.6959 6.80739L76.9533 0L79.2107 6.80739L86.3089 6.87537L80.6058 11.1506L82.7354 18L76.9533 13.8348Z" fill="#FFB14F"/>
<path fill-rule="evenodd" clip-rule="evenodd" d="M100.065 13.8348L93.9247 18L96.1862 11.1506L90.1299 6.87539L97.6677 6.80741L100.065 0L102.462 6.80741L110 6.87539L103.944 11.1506L106.205 18L100.065 13.8348Z" fill="#FFB14F"/>
</svg>
